<!DOCTYPE svg PUBLIC "-//W3C//DTD SVG 20010904//EN" "http://www.w3.org/TR/2001/REC-SVG-20010904/DTD/svg10.dtd">
<svg version="1.0" xmlns="http://www.w3.org/2000/svg" width="74px" height="128px" viewBox="0 0 740 1280" preserveAspectRatio="xMidYMid meet">
<g id="layer101" fill="#0e0e0e" stroke="none">
 <path d="M0 640 l0 -640 370 0 370 0 0 640 0 640 -370 0 -370 0 0 -640z"/>
 </g>
<g id="layer102" fill="#323232" stroke="none">
 <path d="M0 640 l0 -640 370 0 370 0 0 640 0 640 -370 0 -370 0 0 -640z m417 -147 c-4 -3 -7 0 -7 7 0 7 3 10 7 7 3 -4 3 -10 0 -14z m-250 -80 c-4 -3 -10 -3 -14 0 -3 4 0 7 7 7 7 0 10 -3 7 -7z m120 1 c-3 -3 -12 -4 -19 -1 -8 3 -5 6 6 6 11 1 17 -2 13 -5z m250 -11 c-4 -3 -10 -3 -14 0 -3 4 0 7 7 7 7 0 10 -3 7 -7z m-145 -99 c16 -53 16 -59 2 -72 -11 -10 -14 -10 -14 2 0 7 -6 16 -13 19 -13 5 -22 61 -11 78 10 17 27 4 36 -27z"/>
 </g>
<g id="layer103" fill="#505050" stroke="none">
 <path d="M0 640 l0 -640 370 0 370 0 0 640 0 640 -370 0 -370 0 0 -640z m357 178 c-3 -7 -5 -2 -5 12 0 14 2 19 5 13 2 -7 2 -19 0 -25z m-42 -48 c3 -5 4 -10 1 -10 -3 0 -8 5 -11 10 -3 6 -4 10 -1 10 3 0 8 -4 11 -10z m45 -40 c0 -11 -2 -20 -4 -20 -2 0 -6 9 -9 20 -3 11 -1 20 4 20 5 0 9 -9 9 -20z m7 -57 c-4 -3 -7 0 -7 7 0 7 3 10 7 7 3 -4 3 -10 0 -14z m110 -20 c-4 -3 -7 0 -7 7 0 7 3 10 7 7 3 -4 3 -10 0 -14z m-100 -30 c-4 -3 -7 0 -7 7 0 7 3 10 7 7 3 -4 3 -10 0 -14z m10 -50 c-4 -3 -7 0 -7 7 0 7 3 10 7 7 3 -4 3 -10 0 -14z m0 -70 c-4 -3 -7 0 -7 7 0 7 3 10 7 7 3 -4 3 -10 0 -14z m30 -10 c-4 -3 -7 0 -7 7 0 7 3 10 7 7 3 -4 3 -10 0 -14z m-280 -70 c-4 -3 -10 -3 -14 0 -3 4 0 7 7 7 7 0 10 -3 7 -7z m56 -10 c-7 -2 -21 -2 -30 0 -10 3 -4 5 12 5 17 0 24 -2 18 -5z m95 0 c-10 -2 -28 -2 -40 0 -13 2 -5 4 17 4 22 1 32 -1 23 -4z m249 -9 c-3 -3 -12 -4 -19 -1 -8 3 -5 6 6 6 11 1 17 -2 13 -5z m70 -10 c-3 -3 -12 -4 -19 -1 -8 3 -5 6 6 6 11 1 17 -2 13 -5z m-206 -105 c9 -30 9 -42 -1 -54 -11 -13 -15 -12 -31 9 -18 23 -26 86 -12 99 11 12 33 -14 44 -54z"/>
 </g>
<g id="layer104" fill="#6f6f6f" stroke="none">
 <path d="M0 640 l0 -640 370 0 370 0 0 640 0 640 -370 0 -370 0 0 -640z m357 178 c-3 -7 -5 -2 -5 12 0 14 2 19 5 13 2 -7 2 -19 0 -25z m-92 2 c3 -5 4 -10 1 -10 -3 0 -8 5 -11 10 -3 6 -4 10 -1 10 3 0 8 -4 11 -10z m46 -47 c13 -16 12 -17 -3 -4 -10 7 -18 15 -18 17 0 8 8 3 21 -13z m48 -47 c0 -14 -2 -16 -6 -6 -3 8 -10 21 -16 28 -7 9 -6 11 7 6 9 -3 16 -16 15 -28z m8 -53 c-4 -3 -7 0 -7 7 0 7 3 10 7 7 3 -4 3 -10 0 -14z m110 -35 c-3 -7 -5 -2 -5 12 0 14 2 19 5 13 2 -7 2 -19 0 -25z m-100 -15 c-4 -3 -7 0 -7 7 0 7 3 10 7 7 3 -4 3 -10 0 -14z m10 -50 c-4 -3 -7 0 -7 7 0 7 3 10 7 7 3 -4 3 -10 0 -14z m0 -70 c-4 -3 -7 0 -7 7 0 7 3 10 7 7 3 -4 3 -10 0 -14z m42 -38 c0 -5 -4 -3 -9 5 -5 8 -9 22 -9 30 0 16 17 -16 18 -35z m-49 11 c0 -3 -5 -8 -12 -12 -7 -4 -8 -3 -4 4 7 12 16 16 16 8z m-243 -52 c-3 -3 -12 -4 -19 -1 -8 3 -5 6 6 6 11 1 17 -2 13 -5z m168 -4 c-3 -6 -41 -9 -83 -8 l-77 2 75 6 c41 4 79 7 83 8 5 1 5 -2 2 -8z m172 -7 c-4 -3 -10 -3 -14 0 -3 4 0 7 7 7 7 0 10 -3 7 -7z m56 -10 c-7 -2 -19 -2 -25 0 -7 3 -2 5 12 5 14 0 19 -2 13 -5z m97 -13 c11 -8 7 -9 -15 -4 -37 8 -45 14 -19 14 10 0 26 -5 34 -10z m-233 -71 c15 -29 16 -69 3 -89 -16 -24 -50 23 -50 69 0 58 23 67 47 20z"/>
 </g>
<g id="layer105" fill="#919191" stroke="none">
 <path d="M0 640 l0 -640 370 0 370 0 0 640 0 640 -370 0 -370 0 0 -640z m357 233 c-4 -3 -7 0 -7 7 0 7 3 10 7 7 3 -4 3 -10 0 -14z m0 -65 c-2 -13 -4 -5 -4 17 -1 22 1 32 4 23 2 -10 2 -28 0 -40z m-86 5 c13 -16 12 -17 -3 -4 -17 13 -22 21 -14 21 2 0 10 -8 17 -17z m80 -57 c5 3 9 -4 9 -14 0 -11 2 -35 5 -53 4 -30 3 -29 -8 7 -6 23 -25 53 -42 69 l-30 27 29 -21 c15 -11 32 -18 37 -15z m139 -93 c0 -5 -5 -15 -10 -23 -8 -12 -10 -11 -10 8 0 12 5 22 10 22 6 0 10 -3 10 -7z m-113 -40 c-4 -3 -7 0 -7 7 0 7 3 10 7 7 3 -4 3 -10 0 -14z m10 -55 c-3 -8 -6 -5 -6 6 -1 11 2 17 5 13 3 -3 4 -12 1 -19z m39 -75 c1 -32 -1 -34 -9 -16 -8 18 -5 53 5 53 2 0 3 -17 4 -37z m-39 10 c-4 -3 -7 0 -7 7 0 7 3 10 7 7 3 -4 3 -10 0 -14z m-7 -27 c0 -3 -5 -8 -12 -12 -7 -4 -8 -3 -4 4 7 12 16 16 16 8z m-243 -52 c-3 -3 -12 -4 -19 -1 -8 3 -5 6 6 6 11 1 17 -2 13 -5z m178 -4 c-3 -6 -42 -9 -88 -8 l-82 2 75 6 c41 4 81 7 88 8 7 1 10 -2 7 -8z m162 -7 c-4 -3 -10 -3 -14 0 -3 4 0 7 7 7 7 0 10 -3 7 -7z m71 -10 c-10 -2 -26 -2 -35 0 -10 3 -2 5 17 5 19 0 27 -2 18 -5z m91 -14 c48 -17 32 -20 -19 -4 -25 7 -38 14 -29 14 9 1 30 -4 48 -10z m-226 -89 c6 -24 -12 -80 -27 -80 -30 0 -52 123 -23 133 13 5 43 -27 50 -53z"/>
 </g>
<g id="layer106" fill="#b3b3b3" stroke="none">
 <path d="M0 640 l0 -640 370 0 370 0 0 640 0 640 -370 0 -370 0 0 -640z m362 130 c4 -96 3 -108 -6 -73 -8 29 -22 50 -45 67 -18 14 -40 35 -49 48 -8 13 2 7 24 -14 56 -54 64 -50 64 29 0 103 7 70 12 -57z m123 -100 c3 -5 1 -18 -4 -27 -9 -16 -10 -15 -11 6 0 13 -8 30 -17 38 -16 13 -16 13 4 3 12 -5 25 -15 28 -20z m-108 -47 c-4 -3 -7 0 -7 7 0 7 3 10 7 7 3 -4 3 -10 0 -14z m76 -38 c-3 -9 -8 -14 -10 -11 -3 3 -2 9 2 15 9 16 15 13 8 -4z m-66 -17 c-3 -8 -6 -5 -6 6 -1 11 2 17 5 13 3 -3 4 -12 1 -19z m40 -49 c-3 -12 -1 -33 4 -48 9 -24 8 -25 -6 -7 -16 21 -18 36 -9 60 9 23 17 19 11 -5z m-40 -16 c-4 -3 -7 0 -7 7 0 7 3 10 7 7 3 -4 3 -10 0 -14z m-21 -41 c-17 -16 -18 -16 -5 5 7 12 15 20 18 17 3 -2 -3 -12 -13 -22z m-43 -32 c-15 -17 -29 -20 -98 -19 -44 0 -89 4 -99 8 -11 4 18 6 65 4 61 -3 91 0 109 11 36 20 42 19 23 -4z m167 -16 c0 -2 -7 -4 -15 -4 -8 0 -15 4 -15 10 0 5 7 7 15 4 8 -4 15 -8 15 -10z m58 -11 c-10 -2 -26 -2 -35 0 -10 3 -2 5 17 5 19 0 27 -2 18 -5z m91 -14 c48 -17 32 -20 -19 -4 -25 7 -38 14 -29 14 9 1 30 -4 48 -10z m-226 -125 c-8 -24 -20 -44 -27 -44 -30 0 -51 123 -23 133 6 2 24 -7 39 -20 26 -25 26 -26 11 -69z"/>
 </g>
<g id="layer107" fill="#d2d2d2" stroke="none">
 <path d="M0 640 l0 -640 370 0 370 0 0 640 0 640 -370 0 -370 0 0 -640z m347 283 c-4 -3 -7 0 -7 7 0 7 3 10 7 7 3 -4 3 -10 0 -14z m16 -148 c3 -69 2 -112 -3 -100 -5 11 -9 30 -9 41 -1 13 -17 32 -42 49 -22 16 -45 38 -51 49 -7 13 4 7 30 -16 23 -21 47 -38 52 -38 6 0 10 31 10 72 0 109 7 77 13 -57z m123 -109 c3 -7 -6 -33 -19 -57 -33 -60 -46 -109 -36 -139 9 -24 8 -24 -6 -6 -21 28 -19 42 15 114 38 80 38 96 0 112 -17 7 -33 17 -36 22 -3 5 13 0 35 -12 23 -11 44 -27 47 -34z m-109 -48 c-3 -7 -5 -2 -5 12 0 14 2 19 5 13 2 -7 2 -19 0 -25z m10 -65 c-3 -10 -5 -2 -5 17 0 19 2 27 5 18 2 -10 2 -26 0 -35z m0 -45 c-3 -8 -6 -5 -6 6 -1 11 2 17 5 13 3 -3 4 -12 1 -19z m-40 -63 c-37 -32 -38 -34 -15 -39 13 -3 -23 -3 -80 0 -57 3 -113 9 -125 13 -13 6 10 7 59 4 72 -5 87 -3 129 18 26 13 50 30 52 37 3 7 8 10 12 6 3 -3 -11 -21 -32 -39z m175 -34 c39 -8 35 -9 -32 -9 -41 1 -65 3 -52 5 12 2 22 9 22 14 0 6 4 7 10 4 5 -3 29 -10 52 -14z m133 -26 c39 -17 23 -18 -40 0 -40 11 -44 14 -20 14 17 0 44 -6 60 -14z m-239 -40 c23 -35 0 -125 -32 -125 -17 0 -46 78 -38 104 16 51 44 60 70 21z"/>
 </g>
<g id="layer108" fill="#ffffff" stroke="none">
 <path d="M0 640 l0 -640 370 0 370 0 0 640 0 640 -370 0 -370 0 0 -640z m362 178 l1 -79 63 -32 c35 -17 64 -37 64 -44 0 -8 -13 -40 -30 -73 -60 -118 -35 -162 103 -184 47 -8 94 -19 104 -25 24 -14 9 -13 -62 4 -33 8 -85 15 -115 15 l-56 0 0 -52 c0 -56 -28 -128 -48 -128 -13 0 -30 28 -41 67 -9 33 20 93 45 93 13 0 24 8 27 19 3 13 11 17 24 14 25 -7 24 1 -6 33 -33 35 -32 60 7 138 17 35 28 71 25 79 -5 14 -75 57 -93 57 -3 0 -3 -19 0 -42 3 -24 9 -76 12 -116 l7 -73 -41 -39 -41 -39 27 -5 c15 -2 -21 -3 -80 0 -60 3 -118 9 -130 13 -15 6 3 7 49 4 79 -6 141 10 181 48 28 25 29 92 4 197 -16 64 -22 75 -55 97 -20 14 -42 35 -48 48 -9 16 0 11 29 -15 23 -21 47 -38 53 -38 8 0 10 27 7 93 -4 60 -2 84 4 68 4 -13 9 -60 10 -103z"/>
 </g>

</svg>