<!DOCTYPE svg PUBLIC "-//W3C//DTD SVG 20010904//EN" "http://www.w3.org/TR/2001/REC-SVG-20010904/DTD/svg10.dtd">
<svg version="1.0" xmlns="http://www.w3.org/2000/svg" width="59px" height="74px" viewBox="0 0 590 740" preserveAspectRatio="xMidYMid meet">
<g id="layer101" fill="#0c0c0c" stroke="none">
 <path d="M0 370 l0 -370 295 0 295 0 0 370 0 370 -295 0 -295 0 0 -370z"/>
 </g>
<g id="layer102" fill="#323232" stroke="none">
 <path d="M0 370 l0 -370 295 0 295 0 0 370 0 370 -295 0 -295 0 0 -370z m257 153 c-4 -3 -7 0 -7 7 0 7 3 10 7 7 3 -4 3 -10 0 -14z m60 -240 c-4 -3 -7 0 -7 7 0 7 3 10 7 7 3 -4 3 -10 0 -14z m-250 -80 c-4 -3 -10 -3 -14 0 -3 4 0 7 7 7 7 0 10 -3 7 -7z m116 0 c-7 -2 -19 -2 -25 0 -7 3 -2 5 12 5 14 0 19 -2 13 -5z m114 -122 c13 -39 13 -45 0 -58 -13 -14 -17 -13 -28 8 -24 44 -23 105 2 97 6 -2 18 -23 26 -47z"/>
 </g>
<g id="layer103" fill="#4e4e4e" stroke="none">
 <path d="M0 370 l0 -370 295 0 295 0 0 370 0 370 -295 0 -295 0 0 -370z m215 190 c3 -5 4 -10 1 -10 -3 0 -8 5 -11 10 -3 6 -4 10 -1 10 3 0 8 -4 11 -10z m45 -40 c0 -11 -2 -20 -4 -20 -2 0 -6 9 -9 20 -3 11 -1 20 4 20 5 0 9 -9 9 -20z m7 -57 c-4 -3 -7 0 -7 7 0 7 3 10 7 7 3 -4 3 -10 0 -14z m116 -23 c-3 -11 -7 -20 -9 -20 -2 0 -4 9 -4 20 0 11 4 20 9 20 5 0 7 -9 4 -20z m-106 -27 c-4 -3 -7 0 -7 7 0 7 3 10 7 7 3 -4 3 -10 0 -14z m10 -50 c-4 -3 -7 0 -7 7 0 7 3 10 7 7 3 -4 3 -10 0 -14z m0 -70 c-4 -3 -7 0 -7 7 0 7 3 10 7 7 3 -4 3 -10 0 -14z m30 -10 c-4 -3 -7 0 -7 7 0 7 3 10 7 7 3 -4 3 -10 0 -14z m-37 -17 c0 -3 -5 -8 -12 -12 -7 -4 -8 -3 -4 4 7 12 16 16 16 8z m-243 -52 c-3 -3 -12 -4 -19 -1 -8 3 -5 6 6 6 11 1 17 -2 13 -5z m56 -11 c-7 -2 -21 -2 -30 0 -10 3 -4 5 12 5 17 0 24 -2 18 -5z m80 0 c-13 -2 -33 -2 -45 0 -13 2 -3 4 22 4 25 0 35 -2 23 -4z m264 -9 c-3 -3 -12 -4 -19 -1 -8 3 -5 6 6 6 11 1 17 -2 13 -5z m70 -10 c-3 -3 -12 -4 -19 -1 -8 3 -5 6 6 6 11 1 17 -2 13 -5z m-207 -100 c12 -34 6 -74 -10 -74 -27 0 -55 102 -33 123 10 11 31 -12 43 -49z"/>
 </g>
<g id="layer104" fill="#757575" stroke="none">
 <path d="M0 370 l0 -370 295 0 295 0 0 370 0 370 -295 0 -295 0 0 -370z m257 243 c-3 -10 -5 -4 -5 12 0 17 2 24 5 18 2 -7 2 -21 0 -30z m-10 -74 c6 -2 13 -24 16 -49 l6 -45 -12 40 c-7 25 -31 59 -62 89 -48 47 -48 47 -4 9 25 -22 50 -42 56 -44z m143 -86 c0 -5 -5 -15 -10 -23 -8 -12 -10 -11 -10 8 0 12 5 22 10 22 6 0 10 -3 10 -7z m-113 -40 c-4 -3 -7 0 -7 7 0 7 3 10 7 7 3 -4 3 -10 0 -14z m10 -55 c-3 -8 -6 -5 -6 6 -1 11 2 17 5 13 3 -3 4 -12 1 -19z m39 -75 c1 -32 -1 -34 -9 -16 -8 18 -5 53 5 53 2 0 3 -17 4 -37z m-39 10 c-4 -3 -7 0 -7 7 0 7 3 10 7 7 3 -4 3 -10 0 -14z m-7 -27 c0 -3 -5 -8 -12 -12 -7 -4 -8 -3 -4 4 7 12 16 16 16 8z m-243 -52 c-3 -3 -12 -4 -19 -1 -8 3 -5 6 6 6 11 1 17 -2 13 -5z m173 -4 c-8 -5 -49 -9 -90 -8 l-75 2 75 6 c41 4 82 7 90 8 13 2 13 1 0 -8z m167 -7 c-4 -3 -10 -3 -14 0 -3 4 0 7 7 7 7 0 10 -3 7 -7z m71 -10 c-10 -2 -26 -2 -35 0 -10 3 -2 5 17 5 19 0 27 -2 18 -5z m91 -14 c48 -17 32 -20 -19 -4 -25 7 -38 14 -29 14 9 1 30 -4 48 -10z m-238 -79 c12 -26 14 -41 7 -62 -20 -56 -58 -15 -58 63 0 33 3 40 17 37 10 -2 25 -19 34 -38z"/>
 </g>
<g id="layer105" fill="#8d8d8d" stroke="none">
 <path d="M0 370 l0 -370 295 0 295 0 0 370 0 370 -295 0 -295 0 0 -370z m257 243 c-2 -16 -4 -5 -4 22 0 28 2 40 4 28 2 -13 2 -35 0 -50z m-14 -63 c9 0 17 -3 18 -7 0 -5 2 -28 4 -53 l3 -45 -11 42 c-9 31 -23 50 -53 73 -23 17 -45 38 -49 48 -3 9 11 0 32 -20 22 -21 47 -38 56 -38z m143 -95 c3 -8 -1 -24 -10 -37 -16 -23 -16 -23 -10 10 5 25 2 36 -12 48 -18 14 -18 14 4 4 13 -6 26 -18 28 -25z m-109 -42 c-4 -3 -7 0 -7 7 0 7 3 10 7 7 3 -4 3 -10 0 -14z m10 -55 c-3 -7 -5 -2 -5 12 0 14 2 19 5 13 2 -7 2 -19 0 -25z m66 17 c-3 -9 -8 -14 -10 -11 -3 3 -2 9 2 15 9 16 15 13 8 -4z m-26 -66 c-3 -12 -1 -33 4 -48 9 -24 8 -25 -6 -7 -16 21 -18 36 -9 60 9 23 17 19 11 -5z m-40 -16 c-4 -3 -7 0 -7 7 0 7 3 10 7 7 3 -4 3 -10 0 -14z m-21 -41 c-17 -16 -18 -16 -5 5 7 12 15 20 18 17 3 -2 -3 -12 -13 -22z m-56 -40 c-6 -2 -8 -7 -5 -12 5 -9 -150 -1 -177 9 -9 3 30 6 88 6 57 0 99 -2 94 -3z m174 -13 c-9 -15 -34 -10 -28 5 3 8 12 12 20 9 8 -3 11 -9 8 -14z m64 -6 c-10 -2 -26 -2 -35 0 -10 3 -2 5 17 5 19 0 27 -2 18 -5z m102 -18 c47 -18 27 -18 -30 -1 -25 8 -36 15 -25 15 11 0 36 -7 55 -14z m-258 -52 c8 -10 18 -26 21 -35 8 -23 -11 -78 -27 -78 -18 0 -36 45 -36 90 0 44 16 52 42 23z"/>
 </g>
<g id="layer106" fill="#b0b0b0" stroke="none">
 <path d="M0 370 l0 -370 295 0 295 0 0 370 0 370 -295 0 -295 0 0 -370z m247 343 c-4 -3 -7 0 -7 7 0 7 3 10 7 7 3 -4 3 -10 0 -14z m10 -105 c-2 -18 -4 -6 -4 27 0 33 2 48 4 33 2 -15 2 -42 0 -60z m-12 -58 c16 0 21 -18 29 -100 l4 -55 -17 67 c-14 59 -22 71 -58 98 -22 17 -44 38 -47 46 -4 9 12 0 34 -20 22 -20 47 -36 55 -36z m141 -94 c3 -8 -9 -40 -26 -72 -27 -49 -31 -67 -27 -108 4 -45 3 -47 -9 -25 -19 34 -17 47 16 117 38 80 38 96 0 112 -17 7 -33 17 -36 22 -3 5 13 0 35 -12 23 -11 44 -27 47 -34z m-99 -143 c-2 -16 -4 -3 -4 27 0 30 2 43 4 28 2 -16 2 -40 0 -55z m-35 -74 c-37 -33 -38 -36 -14 -43 9 -3 -29 -3 -86 0 -57 3 -113 9 -125 14 -14 5 6 6 53 3 89 -6 153 8 177 41 10 13 20 22 23 19 3 -2 -10 -18 -28 -34z m170 -38 c40 -8 38 -9 -27 -9 -38 0 -62 2 -52 5 9 2 17 9 17 14 0 6 4 7 10 4 5 -3 29 -10 52 -14z m133 -26 c39 -17 23 -18 -40 0 -40 11 -44 14 -20 14 17 0 44 -6 60 -14z m-235 -108 c-1 -25 -22 -57 -38 -57 -6 0 -18 19 -27 43 -13 34 -14 49 -5 72 l11 30 30 -33 c16 -18 29 -42 29 -55z"/>
 </g>
<g id="layer107" fill="#d1d1d1" stroke="none">
 <path d="M0 370 l0 -370 295 0 295 0 0 370 0 370 -295 0 -295 0 0 -370z m259 243 l1 -83 60 -30 c34 -17 63 -37 66 -44 3 -8 -8 -41 -25 -75 -61 -119 -37 -163 102 -185 47 -8 94 -19 104 -25 26 -15 3 -13 -64 4 -31 8 -86 15 -120 15 -35 0 -63 4 -63 9 0 5 9 7 20 4 26 -7 25 0 -5 33 -33 35 -32 60 7 138 17 35 28 71 25 79 -5 14 -75 57 -93 57 -3 0 -3 -19 0 -42 3 -24 9 -75 12 -115 l7 -72 -37 -37 c-20 -20 -36 -37 -36 -39 0 -2 10 -6 23 -9 12 -3 -30 -3 -93 0 -63 3 -121 9 -130 14 -9 6 13 7 55 3 83 -6 147 9 181 42 30 30 32 95 6 203 -16 64 -22 75 -55 97 -20 14 -42 35 -48 48 -9 16 0 11 29 -15 23 -21 47 -38 53 -38 8 0 10 27 7 93 -3 50 -2 83 3 72 4 -11 8 -57 8 -102z m61 -546 c-1 -24 -22 -57 -37 -57 -10 0 -28 31 -38 66 -3 12 -1 34 5 50 l11 29 30 -33 c16 -18 29 -42 29 -55z"/>
 </g>
<g id="layer108" fill="#ffffff" stroke="none">
 <path d="M0 370 l0 -370 295 0 295 0 0 370 0 370 -295 0 -295 0 0 -370z m260 249 l0 -87 38 -17 c20 -10 51 -26 69 -37 l32 -19 -35 -72 c-63 -132 -39 -173 114 -192 60 -7 102 -20 102 -33 0 -5 -30 0 -67 9 -38 10 -96 18 -130 18 -35 1 -63 5 -63 11 0 6 7 10 16 10 13 0 12 5 -5 26 -29 36 -26 68 10 141 17 35 29 69 26 77 -7 17 -86 60 -94 52 -3 -2 1 -36 7 -74 7 -38 10 -93 8 -122 -5 -45 -10 -58 -39 -81 l-33 -27 24 -5 c14 -3 -24 -4 -85 -3 -108 3 -145 10 -145 26 0 5 17 4 37 -2 84 -23 202 10 223 63 19 45 -10 235 -38 252 -28 18 -82 69 -82 79 0 5 19 -7 43 -27 l42 -36 3 93 c4 119 22 100 22 -23z m60 -542 c-1 -69 -33 -89 -63 -38 -20 34 -22 73 -6 104 12 20 12 20 40 -11 16 -18 29 -42 29 -55z"/>
 </g>

</svg>